<svg xmlns="http://www.w3.org/2000/svg" viewBox="0 0 141.73 141.73"><defs><style>.cls-1{fill:#fff;}</style></defs><g id="Capa_2" data-name="Capa 2"><g id="Estrella_blanca" data-name="Estrella blanca"><path class="cls-1" d="M108.32,141l-35-19.53a5.39,5.39,0,0,0-5.21,0L33,140.81a5.39,5.39,0,0,1-7.9-5.62L32,93.3a5.42,5.42,0,0,0-1.45-4.65l-29-30a5.4,5.4,0,0,1,3.06-9.1l39.78-6a5.42,5.42,0,0,0,4.07-3L66.13,3.09a5.37,5.37,0,0,1,9.74,0l17.5,37.61a5.4,5.4,0,0,0,4,3.05L137.17,50a5.4,5.4,0,0,1,3,9.12L111,88.9a5.4,5.4,0,0,0-1.48,4.64l6.72,41.93A5.38,5.38,0,0,1,108.32,141Z"/></g></g></svg>