<svg xmlns="http://www.w3.org/2000/svg" viewBox="0 0 172.57 149.56"><defs><style>.cls-1{fill:#c4cddf;}</style></defs><g id="Capa_2" data-name="Capa 2"><g id="Capa_32" data-name="Capa 32"><path class="cls-1" d="M26,148l1.19-.67,23.71-9.82,2.61-6.13s.26-8,5.61-7.83L60.66,108s-7.82-4.57-7.82-19.83a17.15,17.15,0,0,1-5-12.71s-.71-7.57,3.2-7.57L51,39.82s2.41-19.86,26.8-25c0,0,18.52-5.61,25.17-4,0,0,1.57,1-1.92,2.8,0,0-3.91,2.45.06,5.12,0,0,14.84,9.68,16.34,18.68v31l3.07-.06s1.3,16.76-4.37,20.61c0,0-2.09,15.26-7.63,18.13v15.58s4.63-.13,4.24,7.9l3,6.78,29.21,12.21A86.29,86.29,0,1,0,26,148Z"/></g></g></svg>