<svg xmlns="http://www.w3.org/2000/svg" viewBox="0 0 97.9 62.32"><defs><style>.cls-1{fill:none;stroke:#1d1d1b;stroke-linecap:round;stroke-miterlimit:10;stroke-width:3px;}.cls-2{fill:#0d6aaf;}.cls-3{fill:#42a5dd;}.cls-4{fill:#03a043;}</style></defs><g id="Capa_2" data-name="Capa 2"><g id="Capa_21" data-name="Capa 21"><line class="cls-1" x1="36.18" y1="60.43" x2="41.21" y2="50.04"/><line class="cls-1" x1="36.21" y1="60.43" x2="31.72" y2="50.01"/><line class="cls-1" x1="45.39" y1="50.02" x2="54.5" y2="50.03"/><line class="cls-1" x1="45.39" y1="55.23" x2="54.5" y2="55.24"/><line class="cls-1" x1="45.39" y1="60.44" x2="54.5" y2="60.45"/><line class="cls-1" x1="58.95" y1="60.39" x2="58.95" y2="50.01"/><line class="cls-1" x1="68.6" y1="60.39" x2="58.95" y2="50.01"/><line class="cls-1" x1="68.6" y1="60.33" x2="68.6" y2="49.95"/><line class="cls-1" x1="77.24" y1="60.82" x2="77.36" y2="49.95"/><line class="cls-1" x1="18.43" y1="50.02" x2="27.54" y2="50.03"/><line class="cls-1" x1="18.43" y1="55.24" x2="27.54" y2="55.24"/><line class="cls-1" x1="18.43" y1="60.45" x2="27.54" y2="60.45"/><line class="cls-1" x1="72.8" y1="49.94" x2="81.91" y2="49.95"/></g><g id="Capa_28" data-name="Capa 28"><path class="cls-2" d="M4.85,43.24c5.79,1.12,17.35,3,26.3,2a.55.55,0,0,0,.08-1.09A89.17,89.17,0,0,0,4.9,41.84.71.71,0,0,0,4.85,43.24Z"/><path class="cls-3" d="M.21,31.82a70.56,70.56,0,0,0,21.28,6.77.39.39,0,0,0,.26-.72A46.37,46.37,0,0,0,.41,31.09.39.39,0,0,0,.21,31.82Z"/><path class="cls-4" d="M22.45,32.64c1.83,2,6.17,5.8,14.25,9a.33.33,0,0,0,.36-.55c-2.22-2.22-7.7-7.2-14.09-9.3A.5.5,0,0,0,22.45,32.64Z"/><path class="cls-4" d="M12.44,12.44c2.39,3.78,9.87,13.08,21.69,22.23a.66.66,0,0,0,.93-.92C31,28.11,20.93,17.34,13.23,11.59,12.74,11.22,12.11,11.93,12.44,12.44Z"/><path class="cls-2" d="M27.12,9.22c2.23,5.46,7,16.16,12.65,23.14a.55.55,0,0,0,1-.52A89,89,0,0,0,28.33,8.5.71.71,0,0,0,27.12,9.22Z"/><path class="cls-3" d="M39.57,12.46a65.94,65.94,0,0,0,3.69,19,.31.31,0,0,0,.61-.06,43.18,43.18,0,0,0-3.7-19A.31.31,0,0,0,39.57,12.46Z"/><path class="cls-3" d="M.21,31.82a70.56,70.56,0,0,0,21.28,6.77.39.39,0,0,0,.26-.72A46.37,46.37,0,0,0,.41,31.09.39.39,0,0,0,.21,31.82Z"/><path class="cls-4" d="M47.58.53c.31,6.23-.47,19.51.9,34.19.07.82,1.42.83,1.43,0,.16-10.42.87-23.76-1-34.25C48.74-.19,47.55-.15,47.58.53Z"/><path class="cls-2" d="M93.05,43.24c-5.79,1.12-17.35,3-26.3,2a.55.55,0,0,1-.08-1.09A89.21,89.21,0,0,1,93,41.84.71.71,0,0,1,93.05,43.24Z"/><path class="cls-3" d="M97.69,31.82a70.56,70.56,0,0,1-21.28,6.77.39.39,0,0,1-.26-.72,46.37,46.37,0,0,1,21.34-6.78A.39.39,0,0,1,97.69,31.82Z"/><path class="cls-4" d="M75.45,32.64c-1.83,2-6.17,5.8-14.24,9a.34.34,0,0,1-.37-.55c2.22-2.22,7.7-7.2,14.09-9.3A.5.5,0,0,1,75.45,32.64Z"/><path class="cls-4" d="M85.46,12.44c-2.39,3.78-9.87,13.08-21.69,22.23a.66.66,0,0,1-.93-.92C66.92,28.11,77,17.34,84.68,11.59,85.17,11.22,85.79,11.93,85.46,12.44Z"/><path class="cls-2" d="M70.78,9.22c-2.22,5.46-7,16.16-12.65,23.14a.55.55,0,0,1-1-.52A88.61,88.61,0,0,1,69.57,8.5.71.71,0,0,1,70.78,9.22Z"/><path class="cls-3" d="M58.33,12.46a66.18,66.18,0,0,1-3.68,19,.31.31,0,0,1-.62-.06,43.18,43.18,0,0,1,3.7-19A.31.31,0,0,1,58.33,12.46Z"/><path class="cls-3" d="M97.69,31.82a70.56,70.56,0,0,1-21.28,6.77.39.39,0,0,1-.26-.72,46.37,46.37,0,0,1,21.34-6.78A.39.39,0,0,1,97.69,31.82Z"/></g></g></svg>