<svg xmlns="http://www.w3.org/2000/svg" viewBox="0 0 56.69 56.69"><defs><style>.cls-1{fill:#fbd200;}</style></defs><g id="Capa_2" data-name="Capa 2"><g id="Estrella_blanca" data-name="Estrella blanca"><path class="cls-1" d="M43.32,56.42l-14-7.82a2.16,2.16,0,0,0-2.09,0l-14,7.73A2.16,2.16,0,0,1,10,54.08L12.8,37.32a2.17,2.17,0,0,0-.58-1.86L.61,23.47a2.16,2.16,0,0,1,1.23-3.64l15.91-2.38a2.17,2.17,0,0,0,1.63-1.21l7.07-15a2.15,2.15,0,0,1,3.9,0l7,15A2.15,2.15,0,0,0,39,17.51L54.87,20a2.16,2.16,0,0,1,1.2,3.65L44.4,35.56a2.15,2.15,0,0,0-.59,1.85L46.5,54.19A2.16,2.16,0,0,1,43.32,56.42Z"/></g></g></svg>