<svg xmlns="http://www.w3.org/2000/svg" viewBox="0 0 74.47 61.82"><defs><style>.cls-1{fill:#fff;}.cls-1,.cls-2,.cls-3{stroke:#000;stroke-miterlimit:10;stroke-width:5px;}.cls-2,.cls-3{fill:none;stroke-linecap:round;}.cls-3{stroke-dasharray:3.27 7.62 0 0 0 0;}</style></defs><g id="Capa_2" data-name="Capa 2"><g id="Capa_5" data-name="Capa 5"><g id="Capa_6" data-name="Capa 6"><path class="cls-1" d="M62.71,17.68a3.71,3.71,0,0,1,1-4.44A1.26,1.26,0,0,0,64,11.75L60.48,4.3a3.15,3.15,0,0,0-4.19-1.5L4.3,27.46a3.17,3.17,0,0,0-1.5,4.2l4,8.43A3.72,3.72,0,1,1,10,46.81l4,8.43a3.16,3.16,0,0,0,4.2,1.5l52-24.66a3.17,3.17,0,0,0,1.5-4.2l-3.41-7.19a1.65,1.65,0,0,0-1.7-.91A3.73,3.73,0,0,1,62.71,17.68Z"/><line class="cls-2" x1="49.75" y1="5.9" x2="50.4" y2="7.26"/><line class="cls-3" x1="53.66" y1="14.14" x2="63" y2="33.82"/><line class="cls-2" x1="63" y1="33.82" x2="63.64" y2="35.17"/></g><g id="Capa_4" data-name="Capa 4"><path class="cls-1" d="M62.62,43.12A3.72,3.72,0,0,1,65,39.65a2.09,2.09,0,0,0,1.35-1.95V30.07a3.16,3.16,0,0,0-3.15-3.15H5.65A3.16,3.16,0,0,0,2.5,30.07v7.61a2.12,2.12,0,0,0,1.36,2A3.72,3.72,0,0,1,4,46.55,2.46,2.46,0,0,0,2.5,48.83v7.34a3.16,3.16,0,0,0,3.15,3.15H63.19a3.16,3.16,0,0,0,3.15-3.15v-7.6a2.14,2.14,0,0,0-1.36-2A3.73,3.73,0,0,1,62.62,43.12Z"/><line class="cls-2" x1="55.96" y1="26.92" x2="55.96" y2="28.42"/><line class="cls-3" x1="55.96" y1="36.05" x2="55.96" y2="57.82"/><line class="cls-2" x1="55.96" y1="57.82" x2="55.96" y2="59.32"/></g></g></g></svg>