<?xml version="1.0" standalone="no"?>
<!DOCTYPE svg PUBLIC "-//W3C//DTD SVG 20010904//EN"
 "http://www.w3.org/TR/2001/REC-SVG-20010904/DTD/svg10.dtd">
<svg version="1.0" xmlns="http://www.w3.org/2000/svg"
 width="512.000000pt" height="512.000000pt" viewBox="0 0 512.000000 512.000000"
 preserveAspectRatio="xMidYMid meet">

<g transform="translate(0.000000,512.000000) scale(0.100000,-0.100000)"
fill="#000000" stroke="none">
<path d="M735 5108 c-11 -6 -25 -19 -32 -27 -10 -13 -12 -456 -13 -1998 l0
-1982 -296 -3 -296 -3 -24 -28 c-16 -19 -24 -40 -24 -65 0 -36 20 -57 477
-514 509 -509 507 -507 569 -475 44 23 941 927 954 961 8 21 7 38 -1 63 -19
59 -41 63 -354 63 l-275 0 -2 1985 -3 1984 -23 23 c-22 23 -25 23 -330 25
-220 2 -313 0 -327 -9z"/>
<path d="M2565 5108 c-44 -25 -44 -29 -45 -356 l0 -313 26 -24 27 -25 1221 0
c1357 0 1255 -5 1276 68 13 49 13 545 -1 594 -20 73 69 68 -1276 68 -890 -1
-1213 -4 -1228 -12z"/>
<path d="M2580 3653 c-8 -3 -25 -15 -37 -26 -23 -20 -23 -22 -23 -334 l0 -314
25 -24 24 -25 954 0 954 0 24 26 24 26 3 286 c2 194 0 299 -8 325 -21 70 29
67 -1002 66 -508 0 -930 -3 -938 -6z"/>
<path d="M2545 2165 l-25 -24 0 -314 0 -314 26 -24 26 -24 651 -3 c458 -2 663
0 690 8 65 19 68 36 65 375 l-3 293 -24 26 -24 26 -679 0 -679 0 -24 -25z"/>
<path d="M2546 705 l-26 -24 0 -313 c1 -230 4 -317 13 -329 29 -37 47 -39 446
-39 l390 0 28 24 28 24 3 311 3 312 -30 29 -29 30 -400 0 -399 0 -27 -25z"/>
</g>
</svg>
